<?xml version="1.0" standalone="no"?>
<!DOCTYPE svg PUBLIC "-//W3C//DTD SVG 20010904//EN"
 "http://www.w3.org/TR/2001/REC-SVG-20010904/DTD/svg10.dtd">
<svg version="1.0" xmlns="http://www.w3.org/2000/svg"
 width="396.000000pt" height="16.000000pt" viewBox="0 0 396.000000 166.000000"
 preserveAspectRatio="xMidYMid meet">

<g transform="translate(0.000000,166.000000) scale(0.100000,-0.100000)"
fill="#000000" stroke="none">
<path d="M1970 1485 c0 -30 5 -55 10 -55 6 0 10 11 10 24 0 18 7 26 23 29 l22
4 -22 2 c-36 2 -29 31 7 31 17 0 30 5 30 10 0 6 -18 10 -40 10 l-40 0 0 -55z"/>
<path d="M2100 1497 c0 -24 5 -48 12 -55 17 -17 54 -15 72 4 18 17 22 94 6 94
-5 0 -10 -13 -10 -28 0 -37 -22 -67 -44 -59 -11 4 -16 19 -16 47 0 22 -4 40
-10 40 -5 0 -10 -19 -10 -43z"/>
<path d="M2250 1485 l0 -55 40 0 c22 0 40 5 40 10 0 6 -13 10 -30 10 -29 0
-30 2 -30 45 0 25 -4 45 -10 45 -5 0 -10 -25 -10 -55z"/>
<path d="M2380 1485 l0 -55 40 0 c22 0 40 5 40 10 0 6 -13 10 -30 10 -29 0
-30 2 -30 45 0 25 -4 45 -10 45 -5 0 -10 -25 -10 -55z"/>
<path d="M2580 1526 c-15 -20 0 -43 32 -48 12 -2 24 -9 26 -17 4 -11 -3 -13
-32 -8 -40 6 -50 -9 -12 -19 66 -16 92 36 31 62 -43 18 -45 27 -5 22 16 -1 31
2 32 7 5 17 -58 17 -72 1z"/>
<path d="M2700 1530 c0 -5 9 -10 20 -10 17 0 20 -7 20 -45 0 -25 5 -45 10 -45
6 0 10 20 10 45 0 38 3 45 20 45 11 0 20 5 20 10 0 6 -22 10 -50 10 -27 0 -50
-4 -50 -10z"/>
<path d="M2861 1489 c-22 -53 -20 -78 3 -46 17 22 52 22 65 0 19 -35 21 -4 3
43 -26 66 -44 67 -71 3z m49 0 c0 -5 -7 -9 -15 -9 -9 0 -12 6 -9 15 6 15 24
11 24 -6z"/>
<path d="M3007 1522 c-21 -23 -21 -41 -1 -70 12 -17 24 -22 47 -20 17 2 32 9
35 15 2 9 -5 11 -26 7 -24 -5 -32 -2 -42 16 -16 31 4 54 43 46 20 -4 27 -2 25
7 -7 20 -62 20 -81 -1z"/>
<path d="M3140 1485 c0 -42 3 -55 15 -55 9 0 15 9 15 22 l0 21 23 -21 c36 -34
55 -26 21 9 l-29 31 30 24 c17 14 24 24 16 24 -8 0 -25 -10 -38 -22 l-23 -21
0 21 c0 13 -6 22 -15 22 -12 0 -15 -13 -15 -55z"/>
<path d="M382 1359 c-97 -49 -142 -152 -142 -328 -1 -161 -30 -210 -139 -227
-41 -6 -41 -7 -41 -49 0 -43 0 -43 43 -50 54 -9 100 -37 117 -72 8 -17 16 -84
20 -166 6 -130 9 -141 41 -204 42 -83 97 -126 161 -127 41 -1 43 1 46 29 2 26
-2 32 -36 46 -30 12 -44 27 -63 65 -20 42 -24 70 -29 189 -5 106 -11 148 -24
175 -24 46 -54 78 -90 97 -27 14 -28 16 -10 25 10 6 36 27 57 47 51 48 67 107
67 245 0 61 5 128 10 148 14 50 54 95 91 103 27 6 30 10 27 38 -3 27 -7 32
-33 35 -16 1 -49 -7 -73 -19z"/>
<path d="M3476 1358 c-10 -38 -7 -46 22 -53 33 -8 70 -41 85 -75 6 -14 13 -91
17 -171 7 -170 26 -222 97 -275 l41 -31 -42 -30 c-70 -49 -88 -99 -96 -267 -8
-167 -25 -215 -88 -244 -20 -9 -39 -17 -40 -18 -2 -2 -1 -17 3 -34 7 -31 9
-32 46 -27 81 11 155 84 184 180 9 30 15 91 15 151 0 56 4 117 10 135 15 53
55 89 117 102 l53 12 0 42 c0 42 -1 43 -41 49 -111 18 -131 52 -139 241 -5
114 -10 149 -29 190 -28 62 -64 102 -116 126 -56 26 -91 25 -99 -3z"/>
<path d="M1680 1040 l0 -300 60 0 c54 0 60 2 60 20 0 21 0 21 28 0 64 -48 178
-31 227 34 104 136 -4 338 -165 311 -21 -4 -46 -13 -57 -20 -10 -8 -21 -15
-25 -15 -5 0 -8 61 -8 135 l0 135 -60 0 -60 0 0 -300z m245 -46 c25 -10 47
-62 40 -94 -9 -39 -37 -62 -81 -63 -28 -1 -42 5 -60 27 -61 70 12 164 101 130z"/>
<path d="M3130 1040 l0 -300 60 0 60 0 0 300 0 300 -60 0 -60 0 0 -300z"/>
<path d="M762 1299 c-127 -63 -190 -220 -147 -366 57 -192 294 -265 444 -136
59 50 81 100 81 191 l0 72 -130 0 -130 0 0 -50 0 -50 65 0 c56 0 65 -3 65 -18
0 -25 -27 -60 -60 -77 -102 -53 -216 44 -208 177 10 143 144 214 242 127 l33
-28 41 42 42 43 -27 26 c-72 69 -221 91 -311 47z"/>
<path d="M2532 1310 c-31 -13 -46 -56 -32 -91 24 -57 109 -59 130 -3 11 28 4
68 -14 83 -18 15 -59 21 -84 11z"/>
<path d="M1297 1096 c-74 -27 -117 -92 -117 -176 0 -65 18 -108 63 -147 58
-51 145 -56 201 -12 l26 20 0 -20 c0 -19 6 -21 60 -21 l60 0 0 180 0 180 -60
0 c-47 0 -60 -3 -60 -15 0 -14 -3 -14 -29 -1 -44 23 -101 28 -144 12z m150
-118 c25 -23 31 -74 13 -108 -23 -43 -117 -43 -140 0 -17 32 -11 82 12 107 28
30 83 31 115 1z"/>
<path d="M2350 1099 c-14 -6 -35 -20 -47 -31 l-23 -21 0 26 c0 26 -2 27 -60
27 l-60 0 0 -180 0 -180 60 0 60 0 0 110 c0 99 2 112 21 131 18 18 29 21 71
16 l49 -6 21 44 c14 28 18 48 12 54 -15 15 -77 21 -104 10z"/>
<path d="M2816 1095 c-157 -56 -172 -265 -24 -339 57 -28 108 -33 170 -14 39
12 98 57 98 75 0 6 -18 18 -40 28 -37 17 -41 17 -64 1 -49 -32 -127 -13 -139
34 -5 19 -1 20 124 20 l129 0 0 35 c0 76 -53 144 -128 165 -49 13 -79 12 -126
-5z m112 -81 c42 -29 28 -44 -43 -44 -50 0 -65 3 -65 14 0 19 38 46 65 46 11
0 31 -7 43 -16z"/>
<path d="M2500 920 l0 -180 60 0 60 0 0 180 0 180 -60 0 -60 0 0 -180z"/>
<path d="M2517 579 c-52 -40 -27 -139 34 -139 83 0 95 131 13 154 -13 4 -30
-1 -47 -15z m67 -15 c24 -23 21 -80 -5 -98 -38 -26 -69 -3 -69 55 0 55 39 78
74 43z"/>
<path d="M639 573 c5 -10 14 -44 22 -76 7 -32 17 -56 22 -54 5 1 17 27 27 57
l16 55 17 -57 c10 -32 21 -58 26 -58 4 0 17 34 28 75 18 67 18 75 4 75 -12 0
-17 -11 -18 -41 -4 -70 -18 -77 -32 -14 -8 33 -17 55 -24 52 -6 -2 -19 -28
-27 -57 l-16 -54 -11 49 c-9 38 -8 52 0 57 7 5 0 8 -16 8 -23 0 -26 -3 -18
-17z"/>
<path d="M908 583 c8 -3 12 -27 12 -68 0 -41 -4 -65 -12 -68 -7 -3 15 -6 50
-6 57 -1 62 1 62 21 0 17 -3 19 -12 10 -7 -7 -25 -12 -40 -12 -23 0 -28 4 -28
25 0 21 5 25 30 25 17 0 30 5 30 10 0 6 -13 10 -30 10 -25 0 -30 4 -30 25 0
21 5 25 30 25 17 0 30 -4 30 -10 0 -5 5 -10 10 -10 6 0 10 7 10 15 0 12 -13
15 -62 14 -35 0 -57 -3 -50 -6z"/>
<path d="M1118 578 c16 -16 16 -110 0 -126 -9 -9 -1 -12 38 -12 28 0 55 5 62
12 15 15 16 54 2 63 -7 4 -7 12 -1 23 18 32 -5 52 -61 52 -41 0 -49 -3 -40
-12z m79 -9 c18 -18 3 -39 -28 -39 -21 0 -29 5 -29 18 0 10 3 22 7 25 10 11
38 8 50 -4z m11 -86 c3 -20 -1 -23 -32 -23 -32 0 -36 3 -36 26 0 23 3 25 33
22 24 -2 33 -8 35 -25z"/>
<path d="M1448 578 c7 -7 12 -35 12 -63 0 -28 -5 -56 -12 -63 -9 -9 -2 -12 35
-12 58 0 87 25 87 73 0 55 -23 77 -83 77 -40 0 -48 -3 -39 -12z m86 -14 c19
-18 21 -75 4 -92 -7 -7 -25 -12 -40 -12 -27 0 -28 2 -28 53 0 30 3 57 7 60 11
12 41 7 57 -9z"/>
<path d="M1665 515 l0 -75 53 0 c48 0 52 2 51 23 0 12 -3 16 -6 10 -2 -7 -20
-13 -39 -13 -30 0 -34 3 -34 25 0 21 5 25 30 25 17 0 30 5 30 10 0 6 -13 10
-30 10 -25 0 -30 4 -30 25 0 21 5 25 28 25 15 0 33 -5 40 -12 9 -9 12 -8 12 5
0 14 -10 17 -52 17 l-53 0 0 -75z"/>
<path d="M1873 568 c8 -13 23 -47 33 -76 10 -29 22 -51 27 -49 6 2 22 35 38
75 26 69 26 72 8 72 -11 0 -18 -4 -15 -9 3 -5 -3 -33 -13 -62 l-18 -54 -17 52
c-10 29 -15 57 -11 63 4 6 -5 10 -20 10 -24 0 -25 -1 -12 -22z"/>
<path d="M2095 515 l0 -75 53 0 c48 0 52 2 51 23 0 12 -3 16 -6 10 -2 -7 -20
-13 -39 -13 -30 0 -34 3 -34 25 0 21 5 25 30 25 17 0 30 5 30 10 0 6 -13 10
-30 10 -25 0 -30 4 -30 25 0 21 5 25 28 25 15 0 33 -5 40 -12 9 -9 12 -8 12 5
0 14 -10 17 -52 17 l-53 0 0 -75z"/>
<path d="M2298 583 c16 -6 16 -115 0 -131 -9 -9 1 -12 45 -12 43 0 57 4 57 14
0 11 -9 13 -36 9 l-36 -6 4 67 c3 65 3 66 -22 65 -14 0 -19 -3 -12 -6z"/>
<path d="M2715 515 c0 -73 1 -75 25 -75 19 0 21 3 12 12 -21 21 -14 48 12 48
13 0 34 8 47 19 21 16 22 22 11 45 -10 23 -18 26 -59 26 l-48 0 0 -75z m84 51
c18 -22 2 -46 -30 -46 -26 0 -29 4 -29 30 0 25 4 30 24 30 13 0 29 -6 35 -14z"/>
<path d="M2918 583 c16 -6 16 -115 0 -131 -9 -9 2 -12 50 -12 55 0 62 2 62 20
0 11 -4 20 -10 20 -5 0 -10 -4 -10 -10 0 -5 -13 -10 -30 -10 -25 0 -30 4 -30
25 0 21 5 25 31 25 17 0 28 4 24 10 -3 6 -17 10 -31 10 -19 0 -24 5 -24 25 0
21 5 25 30 25 17 0 30 -4 30 -10 0 -5 5 -10 10 -10 6 0 10 7 10 15 0 12 -13
15 -62 14 -35 0 -57 -3 -50 -6z"/>
<path d="M3128 578 c16 -16 16 -110 0 -126 -9 -9 -6 -12 15 -12 24 0 26 2 16
19 -15 23 -5 51 19 51 23 0 42 -19 42 -41 0 -17 17 -35 25 -28 2 2 -3 22 -10
44 -10 27 -11 43 -4 51 7 9 7 19 -1 33 -9 17 -20 21 -62 21 -41 0 -49 -3 -40
-12z m83 -14 c11 -14 10 -18 -6 -30 -25 -18 -44 -18 -51 1 -15 39 30 62 57 29z"/>
<path d="M630 345 c0 -44 18 -80 62 -122 60 -58 84 -63 323 -63 l215 0 0 110
0 110 -300 0 -300 0 0 -35z"/>
</g>
</svg>
